<?xml version="1.0" encoding="UTF-8"?>
<svg xmlns="http://www.w3.org/2000/svg" version="1.1" viewBox="0 0 1014 261">
  <defs>
    <style>
      .cls-1 {
        fill: #cecece;
      }

      .cls-2 {
        fill: #80f;
      }

      .cls-3 {
        fill: #3a3a3a;
      }
    </style>
  </defs>
  <!-- Generator: Adobe Illustrator 28.6.0, SVG Export Plug-In . SVG Version: 1.2.0 Build 709)  -->
  <g>
    <g id="Layer_1">
      <g>
        <path class="cls-3" d="M559.9,122.9V10.9h105.2c32.5,0,42.3,11,42.3,33.1v46.9c0,21-9.9,32-42.3,32h-105.2ZM681.3,44c0-11-3.3-12.9-16.2-12.9h-79.3v71.5h79.3c12.9,0,16.2-1.9,16.2-11.9v-46.6Z"/>
        <rect class="cls-2" x="12.7" y="10.5" width="239.9" height="239.9" rx="19.7" ry="19.7"/>
        <polygon class="cls-1" points="120.6 154.2 120.6 154.2 70.2 204.6 52.4 186.8 84.9 154.2 52.4 121.6 70.2 103.8 120.6 154.2 120.6 154.2"/>
        <rect class="cls-1" x="137.1" y="178.4" width="75.9" height="23.1"/>
        <polygon class="cls-2" points="512.6 134.9 512.6 176.7 434.9 176.7 434.9 134.9 403.7 134.9 403.7 250.5 434.9 250.5 434.9 202.5 512.6 202.5 512.6 250.5 544 250.5 544 134.9 512.6 134.9"/>
        <path class="cls-2" d="M819.7,175.9h-65.6c-7.2,0-7.2-2.1-7.2-3.8v-7.8c0-1.8,0-3.8,7.2-3.8h97.8v-25.6h-97.8c-31.8,0-38.4,16.1-38.4,29.6v7.5c0,13.5,6.7,29.6,38.4,29.6h65.6c7,0,7,1.7,7,3.8v15.7c0,2.5,0,3.6-7,3.6h-100.4v25.8h100.4c31.8,0,38.4-16.2,38.4-29.7v-15.3c0-13.5-6.7-29.6-38.4-29.6Z"/>
        <polygon class="cls-2" points="858 134.9 858 160.6 914.6 160.6 914.6 250.5 946 250.5 946 160.6 1001.3 160.6 1001.3 134.9 858 134.9"/>
        <rect class="cls-3" x="424.6" y="10.5" width="118.6" height="20.1"/>
        <rect class="cls-3" x="424.6" y="102.8" width="118.6" height="20.1"/>
        <rect class="cls-3" x="424.6" y="56.8" width="109.6" height="20.1"/>
        <path class="cls-3" d="M306.1,82.4v40.8h-26.1V10.6h94.5c26.2,0,36.1,11,36.1,27.2v17.4c0,16.1-9.9,27.2-36.1,27.2h-68.4ZM384.6,38.2c0-4.3-2.6-7.4-7.7-7.4h-70.8v31h71c5.1,0,7.5-2.4,7.5-6.6v-17.1Z"/>
        <path class="cls-3" d="M801.9,10.6h-19.2l-75,112.5h29.1l19-29.2h72.6l18.6,29.2h29.4l-74.5-112.5ZM768.9,73.8l23.6-36.3,23.1,36.3h-46.7Z"/>
        <path class="cls-3" d="M885.9,123.1V10.6h26.4v92.1h89v20.5h-115.4Z"/>
        <g>
          <polygon class="cls-1" points="660.5 163.5 645.2 163.5 645.2 156.3 613.2 156.3 613.2 163.5 599.1 163.5 599.1 175.4 579.7 175.4 579.7 229.1 679.2 229.1 679.2 175.4 660.5 175.4 660.5 163.5"/>
          <path class="cls-2" d="M703.7,154.5c0-.1,0-.3-.1-.4,0,0,0-.1,0-.2-3.4-10.1-13-19-36.5-19h-74.3c-15.8,0-25.3,4-30.9,9.7-5.6,5.7-7.2,13-7.2,19.7v56.7c0,3.2.4,6.6,1.4,9.8,0,.1,0,.3.1.4,0,0,0,0,0,.1,3.4,10.1,13,19,36.6,19h74.3c31.5,0,38.1-16,38.1-29.4v-56.7c0-3.2-.4-6.6-1.4-9.8ZM679.2,229.1h-13.9v-15h-3.1v15h-8.7v-15h-3.1v15h-8.7v-15h-3.1v15h-8.7v-15h-3.1v15h-8.7v-15h-3.1v15h-8.7v-15h-3.1v15h-8.7v-15h-3.1v15h-11.7v-53.7h19.4v-11.9h14.1v-7.2h32.1v7.2h15.3v11.9h18.7v53.7Z"/>
        </g>
      </g>
    </g>
  </g>
</svg>